<svg width="36" height="36" viewBox="0 0 36 36" fill="none" xmlns="http://www.w3.org/2000/svg">
<path d="M22.5 33.0975V25.5975C22.5 24.404 22.0259 23.2594 21.182 22.4155C20.3381 21.5716 19.1935 21.0975 18 21.0975C16.8065 21.0975 15.6619 21.5716 14.818 22.4155C13.9741 23.2594 13.5 24.404 13.5 25.5975V33.0975H6C5.20435 33.0975 4.44129 32.7814 3.87868 32.2188C3.31607 31.6562 3 30.8932 3 30.0975V13.7955C3 13.2774 3.13415 12.7682 3.38939 12.3174C3.64463 11.8666 4.01227 11.4895 4.4565 11.223L16.4565 4.023C16.9227 3.74325 17.4563 3.59547 18 3.59547C18.5437 3.59547 19.0773 3.74325 19.5435 4.023L31.5435 11.223C31.9877 11.4895 32.3554 11.8666 32.6106 12.3174C32.8659 12.7682 33 13.2774 33 13.7955V30.0975C33 30.8932 32.6839 31.6562 32.1213 32.2188C31.5587 32.7814 30.7956 33.0975 30 33.0975H22.5V33.0975Z" fill="#073BC8"/>
</svg>
