<svg width="36" height="36" viewBox="0 0 36 36" fill="none" xmlns="http://www.w3.org/2000/svg">
<g clip-path="url(#clip0)">
<path d="M34.0131 36.0001C35.1102 36.0001 36 35.1106 36 34.0132V1.98688C36 0.889453 35.1102 0 34.0131 0H1.98688C0.889312 0 0 0.889453 0 1.98688V34.0132C0 35.1106 0.889312 36.0001 1.98688 36.0001H34.0131Z" fill="#395185"/>
<path d="M24.8393 36.0001V22.059H29.5189L30.2194 16.6259H24.8393V13.157C24.8393 11.584 25.2763 10.512 27.532 10.512L30.4091 10.5107V5.65143C29.9113 5.58519 28.2034 5.43726 26.2166 5.43726C22.0685 5.43726 19.2288 7.96921 19.2288 12.6191V16.6259H14.5372V22.059H19.2288V36.0001H24.8393Z" fill="white"/>
</g>
<defs>
<clipPath id="clip0">
<rect width="36" height="36" fill="white"/>
</clipPath>
</defs>
</svg>
