<svg width="20" height="20" viewBox="0 0 20 20" fill="none" xmlns="http://www.w3.org/2000/svg">
<path d="M11.1428 2C10.8397 2 10.5491 2.12041 10.3347 2.33474C10.1204 2.54906 9.99999 2.83975 9.99999 3.14286C9.99999 3.44596 10.1204 3.73665 10.3347 3.95098C10.5491 4.16531 10.8397 4.28571 11.1428 4.28571H14.0983L6.90627 11.4777C6.79712 11.5831 6.71005 11.7092 6.65016 11.8487C6.59026 11.9881 6.55873 12.1381 6.55742 12.2898C6.5561 12.4416 6.58501 12.5921 6.64248 12.7325C6.69994 12.873 6.7848 13.0006 6.89211 13.1079C6.99941 13.2152 7.12702 13.3 7.26747 13.3575C7.40792 13.415 7.55841 13.4439 7.71016 13.4426C7.86191 13.4413 8.01187 13.4097 8.15131 13.3498C8.29074 13.2899 8.41685 13.2029 8.52227 13.0937L15.7143 5.90171V8.85714C15.7143 9.16025 15.8347 9.45094 16.049 9.66527C16.2633 9.87959 16.554 10 16.8571 10C17.1602 10 17.4509 9.87959 17.6653 9.66527C17.8796 9.45094 18 9.16025 18 8.85714V3.14286C18 2.83975 17.8796 2.54906 17.6653 2.33474C17.4509 2.12041 17.1602 2 16.8571 2H11.1428Z" fill="#717171"/>
<path d="M4.28571 4.28572C3.67951 4.28572 3.09812 4.52654 2.66947 4.95519C2.24082 5.38385 2 5.96523 2 6.57143V15.7143C2 16.3205 2.24082 16.9019 2.66947 17.3305C3.09812 17.7592 3.67951 18 4.28571 18H13.4286C14.0348 18 14.6162 17.7592 15.0448 17.3305C15.4735 16.9019 15.7143 16.3205 15.7143 15.7143V12.2857C15.7143 11.9826 15.5939 11.6919 15.3795 11.4776C15.1652 11.2633 14.8745 11.1429 14.5714 11.1429C14.2683 11.1429 13.9776 11.2633 13.7633 11.4776C13.549 11.6919 13.4286 11.9826 13.4286 12.2857V15.7143H4.28571V6.57143H7.71429C8.01739 6.57143 8.30808 6.45103 8.52241 6.2367C8.73673 6.02237 8.85714 5.73168 8.85714 5.42858C8.85714 5.12547 8.73673 4.83478 8.52241 4.62046C8.30808 4.40613 8.01739 4.28572 7.71429 4.28572H4.28571Z" fill="#717171"/>
</svg>
