<svg width="36" height="36" viewBox="0 0 36 36" fill="none" xmlns="http://www.w3.org/2000/svg">
<path d="M18 36C15.2152 36 12.5445 34.8938 10.5754 32.9246C8.60625 30.9555 7.5 28.2848 7.5 25.5C7.5 22.7152 8.60625 20.0445 10.5754 18.0754C12.5445 16.1062 15.2152 15 18 15C20.7848 15 23.4555 16.1062 25.4246 18.0754C27.3938 20.0445 28.5 22.7152 28.5 25.5C28.5 28.2848 27.3938 30.9555 25.4246 32.9246C23.4555 34.8938 20.7848 36 18 36ZM18 0L0 14.25L7.257 20.16C8.25069 18.1603 9.78265 16.4775 11.6805 15.3009C13.5784 14.1243 15.767 13.5006 18 13.5C20.233 13.5006 22.4216 14.1243 24.3195 15.3009C26.2174 16.4775 27.7493 18.1603 28.743 20.16L36 14.25L18 0Z" fill="white"/>
</svg>
