<svg width="36" height="36" viewBox="0 0 36 36" fill="none" xmlns="http://www.w3.org/2000/svg">
<g clip-path="url(#clip0)">
<g filter="url(#filter0_f)">
<path d="M-0.114502 35.0046L2.35857 26.0196C0.837965 23.3905 0.027496 20.4039 0.0358573 17.3507C0.0358573 7.78326 7.85627 0.00462341 17.4648 0.00462341C22.127 0.00462341 26.5051 1.80997 29.7888 5.0878C33.0807 8.36562 34.8938 12.725 34.8855 17.3591C34.8855 26.9264 27.0649 34.7052 17.4565 34.7052H17.4481C14.5322 34.7052 11.6663 33.9731 9.11796 32.5919L-0.114502 35.0046ZM9.55246 29.4472L10.0788 29.7634C12.3013 31.0778 14.8496 31.7683 17.4481 31.7766H17.4565C25.4358 31.7766 31.9359 25.3124 31.9359 17.3591C31.9359 13.5071 30.4321 9.88819 27.6999 7.15928C24.9678 4.43051 21.3249 2.93306 17.4565 2.93306C9.46885 2.93306 2.96851 9.39727 2.96851 17.3506C2.96851 20.0712 3.72881 22.725 5.18267 25.0213L5.52519 25.5704L4.06312 30.8865L9.55246 29.4472V29.4472Z" fill="black" fill-opacity="0.12"/>
</g>
<path d="M0.656738 33.2545L2.95877 24.8918C1.53927 22.439 0.792551 19.6573 0.793566 16.826C0.793566 7.92617 8.07007 0.686111 16.9964 0.686111C21.3349 0.686111 25.3998 2.36985 28.4584 5.41654C31.517 8.46337 33.1995 12.5204 33.1995 16.834C33.1995 25.7337 25.923 32.9738 16.9965 32.9738H16.9885C14.2758 32.9738 11.6116 32.2923 9.24513 31.0095L0.656738 33.2546V33.2545Z" fill="url(#paint0_linear)"/>
<path d="M0.0690918 35.1087L2.54216 26.1238C1.02156 23.4949 0.210977 20.5081 0.219444 17.4549C0.219444 7.88757 8.03992 0.108856 17.6486 0.108856C22.3106 0.108856 26.6886 1.91407 29.9724 5.19195C33.2643 8.46983 35.0774 12.8292 35.0691 17.4632C35.0691 27.0306 27.2486 34.8093 17.6399 34.8093H17.6318C14.7214 34.8082 11.8577 34.0817 9.30156 32.6961L0.0690918 35.1089V35.1087ZM9.73598 29.5513L10.2624 29.8675C12.4849 31.182 15.0332 31.8725 17.6318 31.8808H17.6401C25.6192 31.8808 32.1197 25.4166 32.1197 17.4632C32.1197 13.6114 30.6157 9.99235 27.8836 7.26359C25.1514 4.53484 21.5085 3.03732 17.6401 3.03732C9.65248 3.03732 3.15218 9.50151 3.15218 17.4549C3.15218 20.1754 3.9124 22.8293 5.36629 25.1254L5.70888 25.6745L4.24668 30.9906L9.73598 29.5513V29.5513Z" fill="white"/>
<path d="M13.803 9.82648C13.4889 9.12889 13.1589 9.11279 12.8612 9.1048C12.6197 9.09682 12.3381 9.09682 12.0563 9.09682C11.7746 9.09682 11.3237 9.20104 10.9374 9.61791C10.551 10.0349 9.47241 11.0452 9.47241 13.1058C9.47241 15.1583 10.9777 17.1467 11.1869 17.4272C11.3962 17.708 14.0926 22.0616 18.3506 23.7373C21.8923 25.1325 22.6168 24.8518 23.3814 24.7796C24.1541 24.7075 25.8606 23.7694 26.2147 22.7912C26.5607 21.8131 26.5607 20.9792 26.4561 20.8028C26.3515 20.6263 26.0698 20.5223 25.6512 20.3137C25.2327 20.1052 23.1721 19.095 22.7858 18.9507C22.3994 18.8064 22.1177 18.7423 21.844 19.1592C21.5622 19.576 20.7574 20.5141 20.5158 20.7949C20.2744 21.0754 20.0249 21.1075 19.6063 20.8991C19.1878 20.6906 17.8355 20.2495 16.2338 18.8224C14.9862 17.7159 14.141 16.3449 13.8994 15.928C13.658 15.5111 13.8754 15.2864 14.0846 15.0781C14.2697 14.8937 14.5031 14.589 14.7125 14.3485C14.9218 14.108 14.9942 13.9316 15.131 13.6509C15.2679 13.3703 15.2034 13.1298 15.0988 12.9214C14.9942 12.7128 14.1732 10.6522 13.803 9.82648V9.82648Z" fill="white"/>
</g>
<defs>
<filter id="filter0_f" x="-2.1145" y="-1.99538" width="39" height="39" filterUnits="userSpaceOnUse" color-interpolation-filters="sRGB">
<feFlood flood-opacity="0" result="BackgroundImageFix"/>
<feBlend mode="normal" in="SourceGraphic" in2="BackgroundImageFix" result="shape"/>
<feGaussianBlur stdDeviation="1" result="effect1_foregroundBlur"/>
</filter>
<linearGradient id="paint0_linear" x1="16.9275" y1="33.2523" x2="16.9275" y2="0.684157" gradientUnits="userSpaceOnUse">
<stop stop-color="#20B038"/>
<stop offset="1" stop-color="#60D66A"/>
</linearGradient>
<clipPath id="clip0">
<rect width="36" height="36" fill="white"/>
</clipPath>
</defs>
</svg>
