<svg width="36" height="36" viewBox="0 0 36 36" fill="none" xmlns="http://www.w3.org/2000/svg">
<g clip-path="url(#clip0)">
<g filter="url(#filter0_f)">
<path d="M0.885498 35.1595L3.29792 26.3915C1.81461 23.8258 1.02401 20.9114 1.03217 17.9319C1.03217 8.59544 8.66079 1.00462 18.0337 1.00462C22.5815 1.00462 26.8523 2.76638 30.0555 5.96506C33.2667 9.16374 35.0353 13.4179 35.0271 17.94C35.0271 27.2764 27.3984 34.8673 18.0256 34.8673H18.0174C15.173 34.8673 12.3774 34.1529 9.89154 32.8051L0.885498 35.1595ZM10.3154 29.7363L10.8288 30.0449C12.9968 31.3276 15.4827 32.0013 18.0174 32.0095H18.0256C25.8092 32.0095 32.1499 25.7013 32.1499 17.94C32.1499 14.181 30.6829 10.6495 28.0178 7.98652C25.3527 5.32364 21.7991 3.86235 18.0256 3.86235C10.2338 3.86235 3.8929 10.1705 3.8929 17.9318C3.8929 20.5867 4.63456 23.1764 6.05276 25.4173L6.38689 25.953L4.96067 31.1408L10.3154 29.7363V29.7363Z" fill="black" fill-opacity="0.24"/>
</g>
<path d="M1.65674 34.2545L3.95877 25.8918C2.53927 23.439 1.79255 20.6573 1.79357 17.826C1.79357 8.92617 9.07007 1.68611 17.9964 1.68611C22.3349 1.68611 26.3998 3.36985 29.4584 6.41654C32.517 9.46337 34.1995 13.5204 34.1995 17.834C34.1995 26.7337 26.923 33.9738 17.9965 33.9738H17.9885C15.2758 33.9738 12.6116 33.2923 10.2451 32.0095L1.65674 34.2546V34.2545Z" fill="url(#paint0_linear)"/>
<path d="M1.06909 34.8397L3.45156 26.1805C1.98667 23.647 1.20578 20.7685 1.21394 17.826C1.21394 8.60554 8.74792 1.10886 18.0046 1.10886C22.4958 1.10886 26.7135 2.84862 29.877 6.00766C33.0482 9.16669 34.7949 13.368 34.7869 17.834C34.7869 27.0545 27.2529 34.5512 17.9963 34.5512H17.9884C15.1847 34.5501 12.4258 33.8499 9.96334 32.5146L1.06909 34.8399V34.8397ZM10.3818 29.4839L10.8889 29.7885C13.0301 31.0554 15.485 31.7209 17.9884 31.7289H17.9964C25.6832 31.7289 31.9456 25.4991 31.9456 17.834C31.9456 14.1218 30.4967 10.634 27.8646 8.00419C25.2325 5.37437 21.7231 3.93114 17.9964 3.93114C10.3014 3.93114 4.03923 10.161 4.03923 17.826C4.03923 20.4479 4.77161 23.0055 6.17223 25.2184L6.50228 25.7476L5.09364 30.8709L10.3818 29.4839V29.4839Z" fill="white"/>
<path d="M13.803 10.8265C13.4889 10.1289 13.1589 10.1128 12.8612 10.1048C12.6197 10.0968 12.3381 10.0968 12.0563 10.0968C11.7746 10.0968 11.3237 10.201 10.9374 10.6179C10.551 11.0349 9.47241 12.0452 9.47241 14.1058C9.47241 16.1583 10.9777 18.1467 11.1869 18.4272C11.3962 18.708 14.0926 23.0616 18.3506 24.7373C21.8923 26.1325 22.6168 25.8518 23.3814 25.7796C24.1541 25.7075 25.8606 24.7694 26.2147 23.7912C26.5607 22.8131 26.5607 21.9792 26.4561 21.8028C26.3515 21.6263 26.0698 21.5223 25.6512 21.3137C25.2327 21.1052 23.1721 20.095 22.7858 19.9507C22.3994 19.8064 22.1177 19.7423 21.844 20.1592C21.5622 20.576 20.7574 21.5141 20.5158 21.7949C20.2744 22.0754 20.0249 22.1075 19.6063 21.8991C19.1878 21.6906 17.8355 21.2495 16.2338 19.8224C14.9862 18.7159 14.141 17.3449 13.8994 16.928C13.658 16.5111 13.8754 16.2864 14.0846 16.0781C14.2697 15.8937 14.5031 15.589 14.7125 15.3485C14.9218 15.108 14.9942 14.9316 15.131 14.6509C15.2679 14.3703 15.2034 14.1298 15.0988 13.9214C14.9942 13.7128 14.1732 11.6522 13.803 10.8265V10.8265Z" fill="white"/>
</g>
<defs>
<filter id="filter0_f" x="-5.1145" y="-4.99538" width="46.1417" height="46.1549" filterUnits="userSpaceOnUse" color-interpolation-filters="sRGB">
<feFlood flood-opacity="0" result="BackgroundImageFix"/>
<feBlend mode="normal" in="SourceGraphic" in2="BackgroundImageFix" result="shape"/>
<feGaussianBlur stdDeviation="3" result="effect1_foregroundBlur"/>
</filter>
<linearGradient id="paint0_linear" x1="17.9275" y1="34.2523" x2="17.9275" y2="1.68416" gradientUnits="userSpaceOnUse">
<stop stop-color="#20B038"/>
<stop offset="1" stop-color="#60D66A"/>
</linearGradient>
<clipPath id="clip0">
<rect width="36" height="36" fill="white"/>
</clipPath>
</defs>
</svg>
