<svg width="36" height="36" viewBox="0 0 36 36" fill="none" xmlns="http://www.w3.org/2000/svg">
<g clip-path="url(#clip0)">
<path d="M22.5 9.75C21.672 9.75 21 9.078 21 8.25V6H15V8.25C15 9.078 14.328 9.75 13.5 9.75C12.672 9.75 12 9.078 12 8.25V6C12 4.3455 13.3455 3 15 3H21C22.6545 3 24 4.3455 24 6V8.25C24 9.078 23.328 9.75 22.5 9.75Z" fill="#073BC8"/>
<path d="M19.065 23.07C18.795 23.175 18.405 23.25 18 23.25C17.595 23.25 17.205 23.175 16.845 23.04L0 17.43V28.875C0 31.155 1.845 33 4.125 33H31.875C34.155 33 36 31.155 36 28.875V17.43L19.065 23.07Z" fill="#073BC8"/>
<path d="M36 11.625V15.06L18.36 20.94C18.24 20.985 18.12 21 18 21C17.88 21 17.76 20.985 17.64 20.94L0 15.06V11.625C0 9.345 1.845 7.5 4.125 7.5H31.875C34.155 7.5 36 9.345 36 11.625V11.625Z" fill="#073BC8"/>
</g>
<defs>
<clipPath id="clip0">
<rect width="36" height="36" fill="white"/>
</clipPath>
</defs>
</svg>
